<?xml version="1.0" encoding="utf-8" ?><svg xmlns="http://www.w3.org/2000/svg" xmlns:xlink="http://www.w3.org/1999/xlink" width="1024" height="1024" viewBox="0 0 1024 1024"><path fill="#4F556C" transform="scale(2 2)" d="M154.206 83.625C214.339 81.8187 261.45 126.618 265.001 185.675L409.285 185.666C415.422 185.666 422.533 185.335 428.512 186.278C453.869 190.277 460.965 211.903 460.97 233.866L460.972 323.607C460.95 360.332 445.247 372.887 409.644 372.825C409.868 376.027 410.712 381.041 411.159 384.319L414.09 405.638C414.664 409.696 415.362 413.753 415.594 417.843C415.772 420.989 411.414 423.242 409.116 421.323C394.033 408.723 379.75 395.171 365.415 381.732C362.175 378.695 359.191 376.221 356.29 372.825C354.884 372.56 350.671 372.799 348.976 372.812L263.069 372.841C242.43 372.86 222.7 368.78 215.692 345.335C212.809 335.689 213.663 323.027 213.663 312.83L213.672 282.363C210.424 282.936 201.643 287.561 197.562 289.101C180.403 295.573 168.325 296.797 150.216 296.682C141.451 302.205 105.313 328.859 99.7094 330.297C97.775 329.409 97.4191 329.181 96.248 327.416C96.1574 323.475 97.9597 314.835 98.6848 310.589L103.398 282.363C11.9636 225.566 47.9598 88.5066 154.206 83.625ZM222.238 276.349L222.234 315.976C222.233 322.947 221.677 332.98 223.045 339.543C227.522 361.029 244.967 364.488 262.965 364.443L352.996 364.37C354.721 364.362 356.279 364.259 358.028 364.547C360.575 364.968 379.43 383.535 384.547 388.057L395.676 398.019C398.849 400.805 402.417 404.37 405.633 406.871C405.325 404.135 404.923 401.726 404.458 399.021L401.516 378.532C400.601 372.058 397.425 364.964 406.046 364.551C416.567 364.046 425.879 365.985 435.524 360.553C453.016 350.703 452.523 336.38 452.522 319.483L452.525 246.138C452.539 229.925 455.037 213.656 441.521 201.583C431.193 192.358 419.726 194.043 406.711 194.045L301.973 194.051C290.538 194.05 278.15 193.812 266.781 194.055C263.648 194.367 264.138 205.955 263.344 209.971C256.944 242.339 244.539 255.526 222.238 276.349ZM106.699 315.413L126.409 302.061C129.784 299.728 134.381 296.296 137.762 294.209C151.088 285.195 145.355 287.907 160.127 287.687C238.18 286.527 283.135 200.275 239.546 135.461C220.37 106.948 187.911 90.7346 152.94 92.2597C125.505 94.9392 100.541 106.223 82.5271 127.728C48.4918 168.204 53.127 232.347 95.042 265.489C100.327 269.668 105.39 273.244 111.168 276.716C115.011 279.025 107.62 310.416 106.699 315.413Z"/><path fill="#4F556C" transform="scale(2 2)" d="M275.357 275.254L391.61 275.242C396.989 275.242 402.378 275.203 407.754 275.314C413.057 275.423 414.259 282.837 408.501 283.995C403.05 284.351 396.334 284 390.704 283.998L276.448 284.039C269.387 283.684 268.096 276.748 275.357 275.254Z"/><path fill="#4F556C" transform="scale(2 2)" d="M311.779 242.748C315.372 242.541 321.304 242.736 325.05 242.737L389.563 242.749C396.009 242.743 403.53 242.367 409.824 243.058C412.619 243.366 413.99 249.297 409.644 251.22L315.102 251.217C306.55 251.174 306.628 244.498 311.779 242.748Z"/><path fill="#4F556C" transform="scale(2 2)" d="M273.817 308.5C277.664 308.468 294.355 307.848 296.899 309.074C300.986 311.042 299.486 316.285 295.568 317.246C291.226 317.264 276.924 317.873 273.748 316.825C268.997 315.258 269.716 310.143 273.817 308.5Z"/><path fill="#4F556C" transform="scale(2 2)" d="M314.733 308.5L327.649 308.465C330.529 308.465 337.46 307.884 339.025 310.215C340.902 313.012 339.353 315.781 336.866 317.246C333.775 317.575 316.235 317.577 313.945 316.714C310.024 315.236 311.532 309.881 314.733 308.5Z"/><path fill="#4F556C" transform="scale(2 2)" d="M275.357 242.748C278.853 242.557 290.503 242.102 293.06 243.358C297.102 245.343 296.054 250.294 290.408 251.22C286.538 251.203 274.746 252.178 271.997 250.018C268.467 247.244 271.719 242.902 275.357 242.748Z"/><path fill="#638DAB" transform="scale(2 2)" d="M152.94 118.26C208.848 115.97 214.258 190.99 162.975 201.141C163.005 206.098 165.469 222.472 158.614 222.33C151.465 222.182 154.901 209.479 154.259 204.735C152.913 194.789 154.187 192.966 163.093 191.928C169.767 190.833 174.233 187.874 179.273 183.589C188.857 174.338 192.664 161.342 188.273 148.566C177.815 118 130.961 119.845 126.075 153.654C125.778 155.709 125.888 159.701 125.22 161.337C123.81 164.792 117.642 164.109 117.309 160.107C115.695 138.119 132.005 121.714 152.94 118.26Z"/><path fill="#638DAB" transform="scale(2 2)" d="M155.612 230.554C164.987 229.229 173.66 235.759 174.976 245.136C176.292 254.512 169.752 263.179 160.375 264.485C151.01 265.79 142.359 259.262 141.045 249.899C139.731 240.536 146.25 231.878 155.612 230.554ZM158.377 255.912C162.972 255.728 166.561 251.877 166.421 247.28C166.28 242.684 162.463 239.058 157.865 239.155C153.206 239.253 149.521 243.133 149.663 247.792C149.805 252.45 153.72 256.098 158.377 255.912Z"/></svg>