<?xml version="1.0" encoding="utf-8"?><!-- Uploaded to: SVG Repo, www.svgrepo.com, Generator: SVG Repo Mixer Tools -->
<svg version="1.1" id="Uploaded to svgrepo.com" xmlns="http://www.w3.org/2000/svg" xmlns:xlink="http://www.w3.org/1999/xlink" 
	 width="800px" height="800px" viewBox="0 0 32 32" xml:space="preserve">
<style type="text/css">
	.blueprint_een{fill:#111918;}
</style>
<path class="blueprint_een" d="M31.061,9.561c0.586-0.586,0.586-1.536,0-2.121l-6-6C24.768,1.146,24.384,1,24,1
	c-0.384,0-0.768,0.146-1.061,0.439L20.379,4h-8.257L9.061,0.939C8.768,0.646,8.384,0.5,8,0.5c-0.384,0-0.768,0.146-1.061,0.439l-6,6
	c-0.586,0.586-0.586,1.536,0,2.121L4,12.121v3.757l-0.311,0.311c-1.274,1.274-1.274,3.347,0,4.621
	c0.451,0.451,1.01,0.753,1.619,0.884c0.128,0.593,0.422,1.156,0.881,1.616c0.451,0.451,1.01,0.753,1.619,0.884
	c0.128,0.593,0.422,1.156,0.881,1.616c0.45,0.45,1.008,0.753,1.616,0.884c0.131,0.608,0.433,1.166,0.884,1.616
	c0.617,0.617,1.438,0.957,2.311,0.957c0.475,0,0.935-0.101,1.354-0.292l0.586,0.586c0.684,0.684,1.593,1.06,2.56,1.06
	c0.967,0,1.876-0.377,2.56-1.06c0.547-0.547,0.898-1.237,1.017-1.985c0.748-0.119,1.437-0.469,1.983-1.015
	c0.547-0.547,0.898-1.237,1.017-1.985c0.748-0.119,1.437-0.469,1.983-1.015c0.547-0.547,0.898-1.237,1.017-1.985
	c0.748-0.119,1.437-0.469,1.983-1.015c0.686-0.686,1.062-1.595,1.062-2.562s-0.377-1.876-1.06-2.56L28.5,14.379v-2.257L31.061,9.561
	z M25.354,18.646c-0.195-0.195-0.512-0.195-0.707,0C24.549,18.744,24.5,18.872,24.5,19s0.049,0.256,0.146,0.354l0.501,0.501
	c0.306,0.306,0.475,0.713,0.475,1.146c0,0.5-0.226,0.965-0.63,1.284c-0.654,0.515-1.613,0.389-2.202-0.2l-0.437-0.437
	c-0.195-0.195-0.512-0.195-0.707,0C21.549,21.744,21.5,21.872,21.5,22s0.049,0.256,0.146,0.354l0.501,0.501
	c0.306,0.306,0.475,0.713,0.475,1.146c0,0.5-0.226,0.965-0.63,1.284c-0.654,0.515-1.613,0.389-2.202-0.2l-0.437-0.437
	c-0.195-0.195-0.512-0.195-0.707,0C18.549,24.744,18.5,24.872,18.5,25s0.049,0.256,0.146,0.354l0.501,0.501
	c0.306,0.306,0.475,0.713,0.475,1.146c0,0.5-0.226,0.965-0.63,1.284c-0.654,0.515-1.613,0.389-2.202-0.2L15.707,27l1.835-1.835
	c0.736-0.736,0.953-1.892,0.428-2.792c-0.423-0.724-1.122-1.086-1.837-1.128c0.276-0.796,0.105-1.714-0.529-2.349
	c-0.409-0.409-0.935-0.62-1.471-0.651c0.276-0.796,0.105-1.714-0.529-2.349c-0.635-0.635-1.554-0.807-2.35-0.529
	c-0.042-0.715-0.404-1.415-1.128-1.837c-0.9-0.525-2.056-0.307-2.793,0.43L6,15.293V11.5c0-0.133-0.053-0.26-0.146-0.353L2.707,8
	L8,2.707l3.146,3.146C11.24,5.947,11.367,6,11.5,6h1.293L9.354,9.439c-0.586,0.586-0.586,1.535,0,2.121l0.273,0.273
	c0.765,0.764,1.925,0.949,2.886,0.469l6.754-3.364c0.385-0.192,0.849-0.116,1.153,0.188l7.728,7.728
	c0.306,0.306,0.475,0.713,0.475,1.146c0,0.5-0.226,0.965-0.63,1.284c-0.654,0.515-1.613,0.389-2.202-0.2L25.354,18.646z
	 M12.604,26.896c-0.494-0.494-0.494-1.299,0-1.793l2.5-2.5c0.247-0.247,0.572-0.371,0.896-0.371s0.649,0.124,0.896,0.371
	c0.494,0.494,0.494,1.299,0,1.793l-2.5,2.5C13.902,27.391,13.098,27.391,12.604,26.896z M5.104,17.604l3-3
	C8.351,14.356,8.676,14.233,9,14.233s0.649,0.124,0.896,0.371c0.494,0.494,0.494,1.299,0,1.793l-3,3
	c-0.494,0.494-1.299,0.494-1.793,0S4.609,18.098,5.104,17.604z M7.604,20.104l3-3l0.5-0.5c0.247-0.247,0.572-0.371,0.896-0.371
	s0.649,0.124,0.896,0.371c0.494,0.494,0.494,1.299,0,1.793l-0.5,0.5l-3,3c-0.494,0.494-1.299,0.494-1.793,0
	S7.109,20.598,7.604,20.104z M10.104,22.604l3-3c0.247-0.247,0.572-0.371,0.896-0.371s0.649,0.124,0.896,0.371
	c0.494,0.494,0.494,1.299,0,1.793l-0.5,0.5l-2.5,2.5c-0.494,0.494-1.299,0.494-1.793,0S9.609,23.098,10.104,22.604z M24,3.207
	L29.293,8.5L26.5,11.293v2.5l-5.397-5.397c-0.61-0.61-1.543-0.76-2.313-0.372l-6.72,3.382c-0.578,0.291-1.278,0.178-1.735-0.279
	l-0.273-0.273c-0.195-0.195-0.195-0.512,0-0.707l3.707-3.707C14.049,6.158,14.43,6,14.828,6h6.379L24,3.207z"/>
</svg>