<?xml version="1.0" encoding="utf-8"?>
<!-- Uploaded to: SVG Repo, www.svgrepo.com, Generator: SVG Repo Mixer Tools -->
<svg width="800px" height="800px" viewBox="0 0 1024 1024" class="icon"  version="1.1" xmlns="http://www.w3.org/2000/svg"><path d="M511 271.4H368l21.8 214.5h242.4L654 271.4zM558.6 647.2l32.8 178.7H430.6l32.8-178.7" fill="#CDE9E3" /><path d="M671.9 481.9v78c0 85.2-72 154.3-160.9 154.3-88.8 0-160.9-69.1-160.9-154.3v-78h321.8zM707.6 199.9H314.4l11.2 71.5h370.8z" fill="#CDE9E3" /><path d="M721.2 188.3c-3.4-4-8.4-6.3-13.6-6.3H314.4c-5.2 0-10.2 2.3-13.6 6.3-3.4 4-4.9 9.2-4.1 14.4l11.2 71.5c1.4 8.7 8.9 15.1 17.7 15.1h26.3L370 464h-19.9c-9.9 0-17.9 8-17.9 17.9v78c0 67.9 41.2 126.6 100.6 154.6L413 822.7c-1 5.2 0.4 10.6 3.8 14.7s8.4 6.4 13.7 6.4h160.9c5.3 0 10.3-2.4 13.7-6.4 3.4-4.1 4.8-9.5 3.8-14.7L589 714.5c59.5-28 100.6-86.7 100.6-154.6v-78c0-9.9-8-17.9-17.9-17.9H652l10.7-103.1h20.7c9.9 0 17.9-8 17.9-17.9s-8-17.9-17.9-17.9h-17l3.7-35.9h26.3c8.8 0 16.3-6.4 17.7-15.1l11.2-71.5c0.8-5.1-0.7-10.3-4.1-14.3zM570 808.1H452l15-81.4c14.1 3.5 28.8 5.5 44 5.5s29.9-2 44-5.5l15 81.4z m-59-111.7c-78.8 0-143-61.2-143-136.4v-24.3h286V560c0 75.2-64.2 136.4-143 136.4z m143-178.7H368v-18h286v18z m-23.5-192.5h-10.7c-9.9 0-17.9 8-17.9 17.9s8 17.9 17.9 17.9h7l-10.7 103H406l-18.2-174.6h246.4l-3.7 35.8z m50.6-71.7H340.9l-5.6-35.7h351.4l-5.6 35.7z" fill="#211F1E" /></svg>